<svg width="605" height="439" viewBox="0 0 605 439" fill="none" xmlns="http://www.w3.org/2000/svg">
<g clip-path="url(#clip0)">
<path d="M180.329 381.732C180.176 399.384 178.9 417.007 176.509 434.493C176.425 435.107 176.334 435.721 176.25 436.335L13.0875 435.411C12.6084 434.802 12.1369 434.184 11.6801 433.56C10.1568 431.493 8.72906 429.367 7.41843 427.168C1.11897 416.575 -1.76499 404.171 1.12502 395.614L1.17677 395.481C1.80061 393.607 2.78365 391.876 4.06944 390.388C10.6586 382.874 23.9812 384.126 36.0712 390.192C25.2273 378.166 16.5927 362.991 15.9366 349.445C15.2933 336.233 22.1122 326.794 29.5081 318.773C29.7507 318.508 29.9934 318.25 30.236 317.992C30.3538 317.86 30.4786 317.734 30.596 317.602C36.3664 311.489 43.0937 305.463 52.8309 306.192C63.5102 306.993 75.3502 316.056 83.652 326.617C91.9538 337.17 97.4706 349.159 103.062 360.859C108.661 372.552 114.719 384.544 123.704 394.538C111.535 378.943 101.723 361.199 98.0988 343.942C94.4745 326.685 97.6642 310.111 108.51 301.984C111.802 299.592 115.612 298.035 119.621 297.441C120.089 297.363 120.564 297.299 121.047 297.242C131.087 296.085 143.074 299.603 153.273 308.012C164.505 317.272 172.292 330.998 176.167 344.029C180.041 357.06 180.454 369.605 180.329 381.732Z" fill="black"/>
<path d="M73.5788 435.754L70.4589 435.736C69.4682 435.109 68.4729 434.488 67.4728 433.876C66.8538 433.48 66.2275 433.099 65.6009 432.71C55.252 426.306 44.8383 420.164 34.3599 414.282C23.8911 408.396 13.3696 402.781 2.79541 397.437C2.51512 397.314 2.28645 397.094 2.14913 396.818C2.01181 396.541 1.97451 396.224 2.04373 395.923C2.05506 395.883 2.07262 395.846 2.09573 395.812C2.24322 395.531 2.57285 395.415 3.05394 395.654C4.35094 396.313 5.65542 396.972 6.95232 397.646C17.5553 403.081 28.1129 408.788 38.6249 414.766C49.1296 420.741 59.5745 426.98 69.9596 433.483C70.1779 433.617 70.3966 433.759 70.6149 433.893C71.6053 434.514 72.5885 435.134 73.5788 435.754Z" fill="white"/>
<path d="M113.807 435.982L111.878 435.971C111.442 435.354 111.015 434.737 110.58 434.12C100.356 419.595 90.1349 405.069 79.9156 390.544C63.1804 366.764 46.4502 342.984 29.725 319.204C29.6259 319.076 29.5521 318.929 29.5079 318.773C29.3649 318.246 29.7466 317.938 30.2359 317.992C30.4421 318.022 30.6398 318.096 30.8155 318.21C30.9913 318.323 31.1412 318.473 31.2553 318.65C40.6379 331.986 50.0182 345.316 59.3961 358.642C76.0442 382.304 92.6899 405.962 109.333 429.618C110.392 431.12 111.45 432.629 112.509 434.131C112.944 434.748 113.379 435.365 113.807 435.982Z" fill="white"/>
<path d="M156.788 424.63C156.69 427.925 156.475 431.166 156.194 434.378C156.139 434.992 156.085 435.606 156.03 436.221L154.006 436.209C154.068 435.595 154.13 434.981 154.184 434.367C154.612 429.727 154.915 425.034 154.957 420.215C155.01 406.852 153.725 393.518 151.12 380.419C148.352 366.314 144.376 352.48 139.239 339.074C133.848 324.935 127.347 311.256 119.8 298.168C119.658 297.955 119.594 297.697 119.621 297.441C119.705 296.857 120.473 296.684 121.047 297.242C121.161 297.352 121.258 297.477 121.337 297.614C122.271 299.241 123.188 300.872 124.087 302.509C131.356 315.669 137.578 329.396 142.693 343.558C147.566 357.008 151.272 370.863 153.77 384.965C156.11 398.048 157.121 411.339 156.788 424.63V424.63Z" fill="white"/>
<path d="M604.4 340.032C604.4 332.103 574.947 325.676 538.615 325.676C502.284 325.676 472.831 332.103 472.831 340.032C472.831 345.113 484.94 349.574 503.193 352.125V430.779C503.193 432.547 503.886 434.242 505.12 435.492C506.353 436.742 508.027 437.444 509.771 437.444C511.516 437.444 513.189 436.742 514.423 435.492C515.657 434.242 516.35 432.547 516.35 430.779V353.542C523.305 354.088 530.799 354.387 538.615 354.387C546.432 354.387 553.926 354.088 560.881 353.542V430.779C560.881 432.547 561.574 434.242 562.808 435.492C564.041 436.742 565.714 437.444 567.459 437.444C569.204 437.444 570.877 436.742 572.111 435.492C573.344 434.242 574.038 432.547 574.038 430.779V352.125C592.291 349.574 604.4 345.113 604.4 340.032Z" fill="#CCCCCC"/>
<path d="M545.891 208.635C561.541 208.635 574.228 195.78 574.228 179.924C574.228 164.067 561.541 151.213 545.891 151.213C530.24 151.213 517.553 164.067 517.553 179.924C517.553 195.78 530.24 208.635 545.891 208.635Z" fill="#2F2E41"/>
<path d="M475.37 425.574H462.962L457.06 377.085H475.372L475.37 425.574Z" fill="#A0616A"/>
<path d="M454.1 421.981H478.029V437.246H439.033C439.033 435.242 439.423 433.257 440.18 431.405C440.937 429.553 442.047 427.87 443.446 426.452C444.845 425.035 446.506 423.911 448.334 423.143C450.162 422.376 452.121 421.981 454.1 421.981V421.981Z" fill="#2F2E41"/>
<path d="M456.001 418.558L444.162 414.794L452.858 366.739L470.33 372.293L456.001 418.558Z" fill="#A0616A"/>
<path d="M436.768 408.678L459.599 415.937L455.088 430.502L417.881 418.672C418.474 416.759 419.432 414.984 420.702 413.446C421.972 411.909 423.528 410.64 425.282 409.712C427.036 408.784 428.953 408.215 430.923 408.038C432.894 407.86 434.88 408.078 436.768 408.678Z" fill="#2F2E41"/>
<path d="M460.038 399.211C459.494 399.211 458.955 399.112 458.447 398.918L449.319 395.45C448.294 395.057 447.443 394.304 446.92 393.329C446.397 392.353 446.238 391.22 446.471 390.135C448.769 379.666 456.601 344.022 460.89 324.904C465.976 302.227 540.178 298.014 543.334 297.845L543.593 297.831L551.94 308.459C554.957 318.281 554.001 325.943 549.099 331.231C534.796 346.66 492.092 337.086 487 335.874L464.302 396.24C463.971 397.114 463.387 397.866 462.625 398.397C461.864 398.927 460.962 399.211 460.038 399.211V399.211Z" fill="#2F2E41"/>
<path d="M473.195 406.389C472.652 406.389 472.113 406.29 471.604 406.096L462.476 402.628C461.451 402.235 460.6 401.482 460.077 400.506C459.554 399.531 459.395 398.397 459.628 397.313C461.926 386.843 469.758 351.2 474.047 332.082C479.134 309.405 553.335 305.191 556.491 305.023L556.751 305.009L565.098 315.636C568.114 325.459 567.158 333.12 562.256 338.408C547.953 353.836 505.249 344.263 500.157 343.052L477.459 403.418C477.128 404.292 476.544 405.044 475.783 405.574C475.021 406.105 474.119 406.389 473.195 406.389V406.389Z" fill="#2F2E41"/>
<path d="M446.785 258.712C447.12 259.166 447.42 259.647 447.68 260.149L497.596 265.477L504.781 255.496L521.066 264.513L506.953 288.735L445.736 272.92C444.191 274.446 442.225 275.459 440.099 275.825C437.972 276.191 435.786 275.892 433.831 274.968C431.876 274.044 430.245 272.54 429.155 270.654C428.065 268.768 427.567 266.591 427.728 264.412C427.889 262.232 428.701 260.154 430.056 258.454C431.411 256.753 433.244 255.511 435.313 254.892C437.382 254.274 439.587 254.308 441.637 254.99C443.686 255.672 445.481 256.97 446.785 258.712L446.785 258.712Z" fill="#A0616A"/>
<path d="M562.782 319.704C562.06 319.702 561.349 319.526 560.707 319.19C550.726 314.048 531.29 305.143 513.267 303.28C512.65 303.218 512.053 303.027 511.514 302.718C510.974 302.409 510.504 301.989 510.134 301.485C509.757 300.976 509.488 300.394 509.342 299.774C509.197 299.155 509.18 298.512 509.291 297.885C510.917 288.764 514.648 265.537 514.167 246.922C514.026 241.198 515.81 235.596 519.228 231.036C522.646 226.477 527.493 223.231 532.973 221.833V221.833C536.272 220.951 539.623 220.282 543.006 219.829C546.894 219.33 550.843 219.761 554.537 221.086C558.231 222.412 561.567 224.595 564.279 227.462C566.99 230.329 569.001 233.799 570.15 237.595C571.3 241.391 571.556 245.407 570.898 249.321C567.684 268.612 564.444 295.556 567.26 314.365C567.389 315.208 567.285 316.07 566.961 316.857C566.636 317.644 566.102 318.325 565.419 318.824C564.654 319.393 563.731 319.701 562.782 319.704Z" fill="white"/>
<path d="M515.09 270.637C514.468 270.636 513.853 270.506 513.282 270.255L500.279 264.552C499.172 264.065 498.301 263.152 497.856 262.015C497.412 260.877 497.431 259.608 497.909 258.485L507.96 234.96C508.567 233.538 509.444 232.251 510.542 231.172C511.639 230.094 512.936 229.245 514.357 228.674C515.779 228.104 517.297 227.823 518.826 227.847C520.355 227.871 521.864 228.2 523.267 228.816C524.67 229.431 525.94 230.32 527.004 231.433C528.068 232.546 528.905 233.86 529.467 235.3C530.029 236.741 530.306 238.28 530.281 239.829C530.256 241.377 529.93 242.906 529.322 244.327L519.271 267.853C518.917 268.679 518.333 269.382 517.591 269.877C516.848 270.372 515.979 270.636 515.09 270.637V270.637Z" fill="white"/>
<path d="M544.855 211.826C558.584 211.826 569.713 200.551 569.713 186.641C569.713 172.732 558.584 161.457 544.855 161.457C531.127 161.457 519.998 172.732 519.998 186.641C519.998 200.551 531.127 211.826 544.855 211.826Z" fill="#A0616A"/>
<path d="M519.55 174.268C531.324 181.55 544.598 185.981 558.338 187.217L554.25 182.253C557.227 183.369 560.359 183.999 563.531 184.121C566.699 184.071 570.018 182.835 571.816 180.192C572.618 178.878 573.095 177.387 573.205 175.846C573.315 174.305 573.056 172.76 572.449 171.343C571.203 168.516 569.264 166.059 566.816 164.206C562.476 160.728 557.355 158.392 551.908 157.406C546.462 156.419 540.859 156.814 535.599 158.553C531.991 159.646 528.76 161.746 526.276 164.613C523.919 167.558 519.382 170.182 520.589 173.771L519.55 174.268Z" fill="#2F2E41"/>
<path d="M549.034 153.944C541.194 145.889 531.707 139.673 521.24 135.733C514.521 133.212 507.208 131.653 500.184 133.086C493.159 134.518 486.516 139.441 484.557 146.424C482.954 152.133 484.609 158.281 487.096 163.656C489.583 169.031 492.903 174.015 494.914 179.591C496.966 185.279 497.583 191.397 496.709 197.389C495.835 203.381 493.498 209.057 489.91 213.902C486.322 218.746 481.597 222.606 476.163 225.131C470.729 227.656 464.759 228.766 458.794 228.361C465.696 229.298 472.057 232.584 478.803 234.333C485.549 236.082 493.511 235.964 498.525 231.067C503.829 225.887 503.935 217.463 503.679 210.003C503.297 198.914 502.916 187.824 502.535 176.734C502.34 171.079 502.174 165.242 504.187 159.963C506.201 154.685 510.985 150.062 516.57 150.11C520.803 150.147 524.549 152.745 527.944 155.307C531.339 157.869 534.932 160.603 539.148 160.984C543.365 161.365 548.179 158.204 547.863 153.927" fill="#2F2E41"/>
<path d="M503.064 313.235C501.417 313.233 499.791 312.861 498.303 312.145C496.815 311.43 495.502 310.389 494.458 309.098C493.415 307.807 492.668 306.297 492.269 304.677C491.871 303.058 491.833 301.369 492.157 299.733C492.48 298.097 493.158 296.554 494.141 295.215C495.125 293.876 496.389 292.775 497.843 291.991C499.297 291.206 500.904 290.759 502.549 290.68C504.195 290.601 505.837 290.892 507.357 291.534H507.357C507.815 291.729 508.258 291.957 508.685 292.215L553.965 271.618L555.237 259.176L574.756 258.646L574.627 279.361C574.603 281.761 573.816 284.088 572.382 285.999C570.949 287.909 568.946 289.301 566.671 289.967L513.717 305.238C513.614 305.592 513.493 305.941 513.354 306.283C512.504 308.339 511.075 310.095 509.244 311.332C507.414 312.568 505.264 313.23 503.064 313.235V313.235Z" fill="#A0616A"/>
<path d="M573.102 268.801C572.547 269.085 571.94 269.252 571.319 269.289L557.177 270.17C555.972 270.244 554.787 269.83 553.882 269.02C552.978 268.21 552.428 267.069 552.352 265.848L550.8 240.262C550.703 238.715 550.909 237.163 551.404 235.697C551.9 234.23 552.676 232.877 553.689 231.715C554.701 230.553 555.93 229.604 557.305 228.923C558.679 228.243 560.173 227.843 561.7 227.748C563.227 227.653 564.758 227.864 566.205 228.369C567.651 228.873 568.985 229.662 570.131 230.69C571.276 231.718 572.211 232.964 572.88 234.358C573.55 235.752 573.941 237.266 574.033 238.814L575.585 264.4C575.639 265.299 575.433 266.194 574.992 266.976C574.551 267.757 573.894 268.392 573.102 268.801L573.102 268.801Z" fill="white"/>
<path d="M542.366 315.822H462.413C461.473 315.822 460.572 315.444 459.908 314.771C459.244 314.098 458.871 313.185 458.871 312.233C458.871 311.281 459.244 310.368 459.908 309.695C460.572 309.022 461.473 308.644 462.413 308.644H542.366C543.305 308.644 544.206 309.022 544.871 309.695C545.535 310.368 545.908 311.281 545.908 312.233V312.233C545.908 313.185 545.535 314.098 544.871 314.771C544.206 315.444 543.305 315.822 542.366 315.822V315.822Z" fill="#3F3D56"/>
<path d="M427.497 309.157V258.912C427.499 257.145 428.193 255.451 429.426 254.202C430.659 252.952 432.331 252.249 434.076 252.247H524.149C525.894 252.249 527.566 252.952 528.799 254.202C530.032 255.451 530.726 257.145 530.728 258.912V309.157C530.726 310.924 530.032 312.618 528.799 313.867C527.566 315.117 525.894 315.82 524.149 315.822H434.076C432.331 315.82 430.659 315.117 429.426 313.867C428.193 312.618 427.499 310.924 427.497 309.157Z" fill="#3F3D56"/>
<path d="M479.112 290.187C482.466 290.187 485.185 287.432 485.185 284.034C485.185 280.637 482.466 277.882 479.112 277.882C475.759 277.882 473.04 280.637 473.04 284.034C473.04 287.432 475.759 290.187 479.112 290.187Z" fill="white"/>
<path d="M280.12 224.907C279.3 223.649 278.218 222.589 276.95 221.801C275.681 221.013 274.258 220.516 272.78 220.346C271.302 220.175 269.804 220.335 268.394 220.814C266.983 221.293 265.693 222.08 264.615 223.119L232.478 206.313L234.475 225.246L264.687 238.303C266.53 240.022 268.931 240.997 271.436 241.043C273.94 241.088 276.374 240.201 278.276 238.55C280.179 236.899 281.417 234.598 281.757 232.084C282.097 229.569 281.514 227.016 280.12 224.907H280.12Z" fill="#FFB8B8"/>
<path d="M251.559 232.528C250.978 232.798 250.347 232.942 249.707 232.949C249.067 232.956 248.433 232.826 247.846 232.568L217.32 219.152C206.882 214.566 198.444 206.295 193.575 195.878L177.527 161.557C176.342 160.015 175.469 158.252 174.958 156.369C174.447 154.485 174.307 152.518 174.546 150.579C174.786 148.641 175.4 146.769 176.354 145.071C177.308 143.374 178.583 141.883 180.106 140.685C181.63 139.487 183.371 138.605 185.23 138.089C187.09 137.573 189.032 137.434 190.945 137.679C192.858 137.924 194.705 138.549 196.379 139.518C198.053 140.487 199.523 141.78 200.704 143.325L228.913 196.352L254.96 216.287C255.706 216.86 256.259 217.651 256.547 218.554C256.834 219.456 256.84 220.427 256.566 221.333L254.009 229.7C253.735 230.597 253.197 231.388 252.467 231.967C252.187 232.19 251.883 232.378 251.559 232.528V232.528Z" fill="#CCCCCC"/>
<path d="M176.82 121.193C190.549 121.193 201.678 109.918 201.678 96.0087C201.678 82.0995 190.549 70.8239 176.82 70.8239C163.092 70.8239 151.963 82.0995 151.963 96.0087C151.963 109.918 163.092 121.193 176.82 121.193Z" fill="#FFB8B8"/>
<path d="M186.889 426.387H199.296L205.199 377.898H186.886L186.889 426.387Z" fill="#FFB8B8"/>
<path d="M223.227 438.059L184.231 438.06L184.23 422.796L208.159 422.794C212.155 422.794 215.988 424.402 218.813 427.265C221.639 430.127 223.226 434.01 223.227 438.059V438.059L223.227 438.059Z" fill="#2F2E41"/>
<path d="M146.406 426.387H158.813L164.717 377.898H146.403L146.406 426.387Z" fill="#FFB8B8"/>
<path d="M182.743 438.059L143.748 438.06L143.747 422.796L167.676 422.794C171.672 422.794 175.504 424.402 178.33 427.265C181.155 430.127 182.743 434.01 182.743 438.059V438.059L182.743 438.059Z" fill="#2F2E41"/>
<path d="M142.073 412.508C141.646 412.013 141.327 411.432 141.14 410.803C140.952 410.173 140.899 409.511 140.985 408.859L162.709 243.785L216.681 253.072L222.441 249.57L207.546 406.193C207.422 407.251 206.942 408.232 206.187 408.973C205.432 409.713 204.447 410.167 203.4 410.258L187.058 411.638C186.408 411.693 185.754 411.606 185.141 411.383C184.527 411.159 183.968 410.805 183.501 410.344C183.034 409.883 182.67 409.326 182.434 408.71C182.198 408.095 182.095 407.435 182.133 406.775L186.364 332.186C186.371 332.059 186.332 331.934 186.254 331.835C186.175 331.736 186.064 331.669 185.94 331.649C185.816 331.629 185.69 331.655 185.584 331.724C185.479 331.793 185.403 331.899 185.37 332.021L164.437 410.669C164.176 411.648 163.603 412.513 162.809 413.13C162.014 413.747 161.041 414.082 160.04 414.083H145.5C144.851 414.083 144.209 413.943 143.618 413.671C143.027 413.399 142.501 413.003 142.073 412.508Z" fill="#56556D"/>
<path d="M179.452 255.34C178.832 254.772 178.036 254.441 177.201 254.406C176.366 254.371 175.545 254.633 174.881 255.147L164.091 263.65C163.503 264.114 162.813 264.425 162.079 264.556C161.346 264.686 160.592 264.633 159.884 264.399C159.176 264.166 158.535 263.76 158.018 263.217C157.501 262.674 157.123 262.011 156.918 261.285C151.625 242.505 139.633 195.231 142.587 161.959C144.262 143.099 160.336 128.766 178.42 129.969C190.783 130.804 198.916 138.03 202.594 151.445C211.624 184.383 221.548 244.801 223.446 256.579C223.596 257.493 223.469 258.431 223.083 259.271C222.697 260.11 222.07 260.812 221.283 261.284C216.178 264.39 210.345 266.053 204.39 266.101C197.185 266.101 188.546 263.559 179.452 255.34Z" fill="#CCCCCC"/>
<path d="M183.523 267.057C183.644 265.554 183.438 264.043 182.92 262.63C182.402 261.217 181.585 259.936 180.526 258.878C179.466 257.819 178.191 257.009 176.789 256.504C175.387 255.999 173.893 255.812 172.412 255.955L157.361 222.637L147.4 238.784L163.22 267.948C163.623 270.453 164.919 272.721 166.861 274.323C168.804 275.925 171.26 276.749 173.762 276.639C176.265 276.529 178.641 275.493 180.44 273.727C182.239 271.961 183.336 269.588 183.523 267.057H183.523Z" fill="#FFB8B8"/>
<path d="M156.408 255.196C155.786 255.045 155.202 254.763 154.694 254.368C154.187 253.974 153.767 253.476 153.462 252.906L137.614 223.262C132.194 213.128 130.592 201.344 133.105 190.102L141.383 153.062C141.39 151.109 141.777 149.176 142.523 147.374C143.268 145.573 144.356 143.938 145.725 142.563C147.094 141.188 148.718 140.1 150.502 139.36C152.287 138.621 154.198 138.246 156.126 138.255C158.053 138.265 159.961 138.659 161.738 139.416C163.515 140.173 165.128 141.277 166.484 142.666C167.84 144.054 168.912 145.7 169.64 147.509C170.368 149.317 170.736 151.254 170.725 153.207L160.623 212.57L168.976 244.542C169.214 245.46 169.168 246.429 168.844 247.318C168.52 248.208 167.935 248.976 167.166 249.517L160.059 254.502C159.296 255.036 158.391 255.322 157.464 255.322C157.108 255.322 156.754 255.28 156.408 255.196V255.196Z" fill="#CCCCCC"/>
<path opacity="0.2" d="M168.708 178.242L159.6 217.207L172.756 250.02L163.648 218.233L168.708 178.242Z" fill="black"/>
<path d="M162.635 116.718C160.424 116.76 158.227 116.357 156.17 115.533C155.265 115.18 154.326 114.89 153.422 114.536C145.446 111.414 140.191 102.807 140.003 94.1446C139.815 85.4826 144.242 77.0754 150.816 71.5348C157.391 65.9942 165.906 63.1497 174.433 62.4919C183.618 61.7833 193.96 64.1432 199.092 71.8929C200.458 73.9558 201.414 76.4586 200.604 78.9493C200.362 79.7009 199.929 80.3748 199.348 80.9036C197.056 82.9697 194.771 81.4162 192.435 81.2789C189.223 81.0902 186.339 83.724 185.302 86.8094C184.265 89.8948 184.722 93.2916 185.559 96.4386C186.197 98.3323 186.599 100.299 186.756 102.294C186.823 103.294 186.638 104.295 186.216 105.202C185.795 106.109 185.152 106.892 184.348 107.477C182.342 108.706 179.706 107.994 177.698 106.767C175.69 105.54 173.955 103.834 171.786 102.931C169.617 102.028 166.703 102.229 165.441 104.231C165.039 104.959 164.768 105.754 164.638 106.578C163.507 111.802 163.767 111.494 162.635 116.718L162.635 116.718Z" fill="#2F2E41"/>
<path d="M378.157 202.186C377.745 201.657 377.457 201.04 377.315 200.382C377.174 199.724 377.182 199.041 377.34 198.387C381.115 182.368 381.115 165.673 377.34 149.654C377.182 149 377.174 148.318 377.315 147.659C377.457 147.001 377.745 146.384 378.157 145.855C378.561 145.334 379.077 144.913 379.665 144.624C380.253 144.335 380.899 144.186 381.553 144.188H421.906C422.937 144.19 423.934 144.563 424.72 145.24C425.505 145.917 426.028 146.855 426.195 147.886C428.827 165.207 428.827 182.834 426.195 200.155C426.028 201.186 425.505 202.124 424.72 202.801C423.934 203.478 422.937 203.851 421.906 203.853H381.553C380.899 203.855 380.253 203.706 379.665 203.417C379.077 203.128 378.561 202.707 378.157 202.186V202.186Z" fill="black"/>
<path d="M316.127 57.6909L316.125 57.6893C315.76 57.2206 315.504 56.673 315.378 56.0881C315.252 55.5033 315.26 54.897 315.4 54.3156L315.401 54.3129C319.193 38.2186 319.193 21.4459 315.401 5.35152L315.401 5.35152L315.4 5.34882C315.26 4.76742 315.252 4.16115 315.378 3.57631C315.504 2.99147 315.76 2.44389 316.125 1.97515L316.125 1.97515L316.127 1.97358C316.484 1.51218 316.939 1.13997 317.459 0.884811C317.979 0.62967 318.548 0.498166 319.125 0.500022H319.127H359.48C360.391 0.502004 361.272 0.831227 361.967 1.4306C362.662 2.02971 363.126 2.86012 363.275 3.77488C365.899 21.0447 365.899 38.6198 363.275 55.8896C363.126 56.8043 362.662 57.6347 361.967 58.2338C361.272 58.8333 360.39 59.1626 359.479 59.1644L319.127 59.1644L319.125 59.1644C318.549 59.1663 317.979 59.0348 317.459 58.7796C316.939 58.5245 316.484 58.1523 316.127 57.6909Z" fill="#EFCF5F" stroke="black"/>
<path d="M415.027 53.9594C415.194 52.9284 415.716 51.991 416.502 51.3139C417.287 50.6368 418.284 50.2641 419.315 50.2621H459.669C460.322 50.26 460.968 50.4091 461.557 50.6981C462.145 50.987 462.661 51.4083 463.064 51.9297C463.477 52.4582 463.765 53.075 463.906 53.7333C464.048 54.3915 464.039 55.0739 463.881 55.7283C460.107 71.7472 460.106 88.4414 463.881 104.46C464.039 105.115 464.048 105.797 463.906 106.455C463.765 107.114 463.477 107.731 463.064 108.259C462.661 108.78 462.145 109.202 461.557 109.491C460.968 109.78 460.322 109.929 459.669 109.927H419.315C418.284 109.925 417.287 109.552 416.502 108.875C415.716 108.198 415.194 107.26 415.027 106.229M415.027 53.9594C412.395 71.2806 412.395 88.908 415.027 106.229M415.027 53.9594L415.521 54.0392C415.521 54.0385 415.521 54.0377 415.521 54.037M415.027 53.9594L415.521 54.0345C415.521 54.0353 415.521 54.0361 415.521 54.037M415.027 106.229L415.521 106.154C415.521 106.153 415.521 106.152 415.521 106.152M415.027 106.229L415.521 106.149C415.521 106.15 415.521 106.151 415.521 106.152M415.521 106.152C415.669 107.066 416.133 107.897 416.828 108.496C417.523 109.096 418.405 109.425 419.316 109.427M415.521 106.152C412.897 88.8818 412.897 71.3068 415.521 54.037M419.316 109.427H459.669H459.67C460.247 109.428 460.817 109.297 461.336 109.042C461.856 108.787 462.312 108.414 462.669 107.953L462.67 107.951C463.036 107.483 463.292 106.935 463.417 106.35C463.543 105.765 463.536 105.159 463.395 104.578L463.394 104.575C459.602 88.4807 459.602 71.7079 463.395 55.6136L463.395 55.611C463.536 55.0296 463.543 54.4233 463.417 53.8384C463.292 53.2536 463.036 52.706 462.67 52.2373L462.669 52.2357C462.312 51.7743 461.856 51.402 461.336 51.1469C460.817 50.8917 460.247 50.7602 459.67 50.7621L459.669 50.7621L419.315 50.7621M419.316 109.427H419.315V109.926L419.316 109.427ZM415.521 54.037C415.669 53.1222 416.133 52.2917 416.828 51.6926C417.523 51.0931 418.405 50.764 419.315 50.7621M419.315 50.7621C419.315 50.7621 419.316 50.7621 419.316 50.7621L419.315 50.2622V50.7621H419.315Z" fill="black" stroke="black"/>
<path d="M246.089 104.404C243.457 87.0829 243.457 69.4555 246.089 52.1343C246.256 51.1034 246.779 50.166 247.564 49.4889C248.349 48.8119 249.346 48.4391 250.377 48.437H290.731C291.385 48.4349 292.031 48.584 292.619 48.873C293.208 49.162 293.723 49.5832 294.127 50.1046C294.539 50.6331 294.827 51.2499 294.969 51.9082C295.11 52.5665 295.102 53.2488 294.944 53.9032C291.169 69.9221 291.169 86.6163 294.944 102.635C295.102 103.29 295.11 103.972 294.969 104.63C294.827 105.289 294.539 105.905 294.127 106.434C293.723 106.955 293.208 107.377 292.619 107.665C292.031 107.954 291.385 108.104 290.731 108.101H250.377C249.346 108.099 248.349 107.727 247.564 107.05C246.779 106.372 246.256 105.435 246.089 104.404Z" fill="black"/>
<path d="M255.726 221.32L255.726 221.317C259.581 204.96 259.581 187.913 255.726 171.555L255.726 171.555L255.725 171.553C255.583 170.96 255.575 170.343 255.703 169.747C255.831 169.151 256.092 168.593 256.464 168.116L256.464 168.116L256.466 168.114C256.829 167.645 257.294 167.266 257.823 167.006C258.352 166.746 258.933 166.612 259.52 166.614H259.522H300.537C301.465 166.616 302.363 166.951 303.071 167.562C303.779 168.172 304.251 169.018 304.403 169.95C307.07 187.504 307.07 205.369 304.403 222.923C304.251 223.855 303.779 224.701 303.071 225.311C302.363 225.922 301.465 226.257 300.537 226.259L259.522 226.259L259.52 226.259C258.933 226.26 258.352 226.127 257.823 225.867C257.294 225.607 256.829 225.228 256.465 224.758L256.07 225.064L256.464 224.757C256.092 224.279 255.831 223.721 255.703 223.126C255.575 222.53 255.583 221.912 255.726 221.32Z" fill="#EFCF5F" stroke="black"/>
<path d="M292.624 188.49H271.017C270.212 188.489 269.44 188.165 268.871 187.588C268.302 187.011 267.981 186.229 267.98 185.414V184.107C267.981 183.292 268.302 182.51 268.871 181.933C269.44 181.357 270.212 181.032 271.017 181.031H292.624C293.429 181.032 294.2 181.357 294.77 181.933C295.339 182.51 295.659 183.292 295.66 184.107V185.414C295.659 186.229 295.339 187.011 294.77 187.588C294.2 188.165 293.429 188.489 292.624 188.49V188.49Z" fill="white"/>
<path d="M292.624 201.356H271.017C270.212 201.355 269.44 201.031 268.871 200.454C268.302 199.877 267.981 199.095 267.98 198.28V196.974C267.981 196.158 268.302 195.376 268.871 194.799C269.44 194.223 270.212 193.898 271.017 193.897H292.624C293.429 193.898 294.2 194.223 294.77 194.799C295.339 195.376 295.659 196.158 295.66 196.974V198.28C295.659 199.095 295.339 199.877 294.77 200.454C294.2 201.031 293.429 201.355 292.624 201.356V201.356Z" fill="white"/>
<path d="M278.314 73.7404H257.138C256.333 73.7395 255.561 73.4151 254.992 72.8384C254.423 72.2617 254.102 71.4798 254.102 70.6642V69.4625C254.102 68.647 254.423 67.865 254.992 67.2883C255.561 66.7116 256.333 66.3872 257.138 66.3864H278.314C279.119 66.3872 279.891 66.7116 280.46 67.2883C281.029 67.865 281.349 68.647 281.35 69.4625V70.6642C281.349 71.4798 281.029 72.2617 280.46 72.8384C279.891 73.4151 279.119 73.7395 278.314 73.7404V73.7404Z" fill="white"/>
<path d="M413.606 164.108H392.431C391.626 164.107 390.854 163.783 390.285 163.206C389.716 162.629 389.395 161.847 389.395 161.032V159.829C389.395 159.014 389.716 158.232 390.285 157.655C390.854 157.079 391.626 156.754 392.431 156.753H413.606C414.411 156.754 415.183 157.079 415.752 157.655C416.322 158.232 416.642 159.014 416.643 159.829V161.032C416.642 161.847 416.322 162.629 415.752 163.206C415.183 163.783 414.411 164.107 413.606 164.108Z" fill="white"/>
<path d="M413.606 179.297H392.431C391.626 179.297 390.854 178.972 390.285 178.395C389.716 177.819 389.395 177.037 389.395 176.221V175.019C389.395 174.204 389.716 173.422 390.285 172.845C390.854 172.268 391.626 171.944 392.431 171.943H413.606C414.411 171.944 415.183 172.268 415.752 172.845C416.322 173.422 416.642 174.204 416.643 175.019V176.221C416.642 177.037 416.322 177.819 415.752 178.395C415.183 178.972 414.411 179.297 413.606 179.297Z" fill="white"/>
<path d="M413.606 194.487H392.431C391.626 194.486 390.854 194.162 390.285 193.585C389.716 193.008 389.395 192.226 389.395 191.411V190.209C389.395 189.393 389.716 188.611 390.285 188.035C390.854 187.458 391.626 187.133 392.431 187.133H413.606C414.411 187.133 415.183 187.458 415.752 188.035C416.322 188.611 416.642 189.393 416.643 190.209V191.411C416.642 192.226 416.322 193.008 415.752 193.585C415.183 194.162 414.411 194.486 413.606 194.487V194.487Z" fill="white"/>
<path d="M278.314 86.3986H257.138C256.333 86.3977 255.561 86.0733 254.992 85.4966C254.423 84.9199 254.102 84.138 254.102 83.3224V82.1203C254.102 81.3047 254.423 80.5227 254.992 79.946C255.561 79.3693 256.333 79.045 257.138 79.0441H278.314C279.119 79.045 279.891 79.3693 280.46 79.946C281.029 80.5227 281.349 81.3047 281.35 82.1203V83.3224C281.349 84.138 281.029 84.9199 280.46 85.4966C279.891 86.0733 279.119 86.3977 278.314 86.3986Z" fill="white"/>
<path d="M351.361 22.4511H330.186C329.381 22.4502 328.609 22.1258 328.04 21.5491C327.47 20.9724 327.15 20.1905 327.149 19.3749V18.1727C327.15 17.3572 327.47 16.5752 328.04 15.9985C328.609 15.4218 329.381 15.0974 330.186 15.0966H351.361C352.166 15.0974 352.938 15.4218 353.507 15.9985C354.077 16.5752 354.397 17.3572 354.398 18.1727V19.3749C354.397 20.1905 354.077 20.9724 353.507 21.5491C352.938 22.1258 352.166 22.4502 351.361 22.4511V22.4511Z" fill="white"/>
<path d="M447.987 76.8316H426.811C426.006 76.8307 425.234 76.5063 424.665 75.9296C424.095 75.3529 423.775 74.571 423.774 73.7554V72.5532C423.775 71.7377 424.095 70.9557 424.665 70.379C425.234 69.8023 426.006 69.4779 426.811 69.4771H447.987C448.792 69.4779 449.563 69.8023 450.133 70.379C450.702 70.9557 451.022 71.7377 451.023 72.5532V73.7554C451.022 74.571 450.702 75.3529 450.133 75.9296C449.563 76.5063 448.792 76.8307 447.987 76.8316Z" fill="white"/>
</g>
<defs>
<clipPath id="clip0">
<rect width="605" height="439" fill="white"/>
</clipPath>
</defs>
</svg>
