<svg width="593" height="391" viewBox="0 0 593 391" fill="none" xmlns="http://www.w3.org/2000/svg">
<g clip-path="url(#clip0)">
<path d="M488.808 348.902L489.382 362.131V373.706H504.325V348.902H488.808Z" fill="#FFB9B9"/>
<path d="M570.994 336.776L571.569 350.004V361.58H586.512L583.638 334.571L570.994 336.776Z" fill="#FFB9B9"/>
<path d="M556.051 122.359L551.453 157.084L536.51 198.424L529.613 174.723L538.234 159.84L536.51 128.422L556.051 122.359Z" fill="#FFB9B9"/>
<path d="M484.209 119.052C484.209 119.052 471.565 140.549 473.289 142.753C475.014 144.958 476.163 157.085 476.163 157.085H480.949L488.807 138.344L484.209 119.052Z" fill="#2F2E41"/>
<path d="M515.533 62.0025C526.642 62.0025 535.648 53.3651 535.648 42.7105C535.648 32.0558 526.642 23.4185 515.533 23.4185C504.423 23.4185 495.417 32.0558 495.417 42.7105C495.417 53.3651 504.423 62.0025 515.533 62.0025Z" fill="#FFB9B9"/>
<path d="M508.061 58.1441C508.061 58.1441 518.98 72.4753 515.532 79.6409C512.084 86.8065 548.866 75.7825 548.866 75.7825C548.866 75.7825 530.475 55.9393 529.9 49.325L508.061 58.1441Z" fill="#FFB9B9"/>
<path d="M548.867 122.083C547.573 123.946 546.303 126.024 545.073 128.218C544.493 129.26 543.924 130.329 543.361 131.41C536.682 144.319 531.625 159.565 531.625 159.565L478.175 157.911L479.836 153.237L487.37 132.005C474.152 124.288 486.796 109.406 493.692 95.6257C500.026 82.9701 513.153 74.5533 515.245 73.2635C515.435 73.1532 515.532 73.0926 515.532 73.0926L515.774 73.054L525.366 71.5051L542.642 68.7161H542.648C545.683 69.2058 548.591 70.2539 551.211 71.8028C553.396 73.1246 555.244 74.8988 556.62 76.9951C558.717 80.1921 559.7 84.0395 559.878 88.1569C560.396 100.212 554.051 114.626 548.867 122.083Z" fill="#D0CDE1"/>
<path d="M552.028 76.6094C552.028 76.6094 562.373 88.1846 562.947 98.1062C563.522 108.028 561.223 126.769 556.051 126.769C550.878 126.769 541.682 130.076 542.257 126.769C542.832 123.461 552.028 76.6094 552.028 76.6094Z" fill="#D0CDE1"/>
<path d="M542.257 97.5549L535.935 98.6573C533.792 82.1929 521.389 75.562 515.245 73.2635C515.435 73.1532 515.532 73.0926 515.532 73.0926L515.774 73.054L525.366 71.5051C538.039 77.7723 542.257 97.5549 542.257 97.5549Z" fill="#2F2E41"/>
<path d="M585.361 334.571C584.787 337.878 568.12 343.941 563.522 343.39C558.924 342.839 513.52 236.457 513.52 236.457C513.52 236.457 513.52 354.965 512.371 357.17C511.221 359.375 491.681 357.17 484.784 349.453C477.887 341.736 473.289 221.024 470.416 200.629C467.542 180.235 476.163 153.777 476.163 153.777L479.835 153.237L491.106 151.572C491.106 151.572 491.106 148.816 508.348 135.588C525.59 122.359 535.935 98.6572 535.935 98.6572L537.659 95.35L542.257 97.5548C547.188 88.8073 550.274 80.2085 551.211 71.8027C553.395 73.1245 555.243 74.8987 556.619 76.9951C556.182 78.1526 555.746 79.4038 555.297 80.7432C551.424 92.3129 547.033 110.232 542.665 127.876C542.527 128.428 542.395 128.979 542.257 129.524C542.673 130.126 543.042 130.756 543.36 131.41C544.521 133.763 545.751 137.765 542.257 139.997C537.084 143.304 535.36 159.84 535.36 159.84C545.13 168.108 547.429 207.244 546.28 210C545.13 212.756 545.13 212.204 548.004 213.858C550.878 215.512 550.878 229.292 550.878 229.292C550.878 229.292 585.936 331.264 585.361 334.571Z" fill="#2F2E41"/>
<path d="M497.428 367.092C497.428 367.092 493.98 370.399 491.681 368.745C489.382 367.092 489.292 360.057 489.292 360.057C489.292 360.057 462.945 357.721 468.117 374.257C473.29 390.793 509.498 392.998 510.647 389.691C511.797 386.384 506.624 365.438 506.624 365.438L497.428 367.092Z" fill="#2F2E41"/>
<path d="M579.615 354.965C579.615 354.965 576.167 358.273 573.868 356.619C571.569 354.965 571.479 347.931 571.479 347.931C571.479 347.931 545.131 345.595 550.304 362.131C555.476 378.667 591.684 380.872 592.834 377.564C593.983 374.257 588.811 353.312 588.811 353.312L579.615 354.965Z" fill="#2F2E41"/>
<path d="M499.152 109.681L496.853 138.895L467.542 170.313C467.542 170.313 457.772 174.723 463.519 182.44C469.266 190.157 471.565 190.708 471.565 190.708L472.14 180.786L511.796 150.47L515.819 109.681H499.152Z" fill="#FFB9B9"/>
<path d="M517.544 97.5548C517.544 97.5548 519.843 72.7508 508.348 74.9556C496.854 77.1604 496.279 87.6332 496.279 87.6332C496.279 87.6332 491.106 112.988 495.704 114.091C500.302 115.193 515.82 117.398 517.544 114.091C519.268 110.784 517.544 97.5548 517.544 97.5548Z" fill="#D0CDE1"/>
<path d="M567.33 58.9482C565.092 57.8851 560.149 55.7396 555.939 53.1547C556.234 44.7456 555.155 37.112 551.994 33.0656C550.22 29.2024 546.495 25.3346 543.577 22.2887C536.412 14.8086 520.568 10.6333 517.757 14.3707C496.503 14.7731 494.266 30.7511 494.266 30.7511C494.376 37.4343 501.619 37.6458 507.963 37.4023C507.395 41.9648 508.909 46.7056 513.293 48.808C521.678 52.8284 524.193 58.055 520.001 61.6734C515.809 65.2919 508.263 74.9409 518.324 77.3531C528.385 79.7654 529.642 84.59 526.708 86.6002C523.773 88.6104 533.415 82.9818 533.415 82.9818C533.415 82.9818 535.092 92.6309 543.895 90.2186C544.819 89.9047 545.633 89.3513 546.248 88.62C548.626 91.1255 550.747 92.6068 552.345 92.615C561.501 92.6616 560.403 82.9363 560.403 82.9363C560.403 82.9363 571.27 85.8633 567.879 84.6863C564.488 83.5093 564.343 78.5382 573.353 73.6137C582.363 68.6892 572.384 61.3486 567.33 58.9482Z" fill="#2F2E41"/>
<path d="M422.427 0.55127H0.575195V230.938H422.427V0.55127Z" fill="#F2F2F2"/>
<path d="M423.001 231.489H0V0H293.896V1.1024H1.14946V230.387H421.851V129.896H423.001V231.489Z" fill="#3F3D56"/>
<path d="M20.1054 24.6475C24.0603 24.6475 27.2665 21.5727 27.2665 17.7796C27.2665 13.9866 24.0603 10.9117 20.1054 10.9117C16.1505 10.9117 12.9443 13.9866 12.9443 17.7796C12.9443 21.5727 16.1505 24.6475 20.1054 24.6475Z" fill="#6C63FF"/>
<path d="M39.0712 24.6475C43.0262 24.6475 46.2323 21.5727 46.2323 17.7796C46.2323 13.9866 43.0262 10.9117 39.0712 10.9117C35.1163 10.9117 31.9102 13.9866 31.9102 17.7796C31.9102 21.5727 35.1163 24.6475 39.0712 24.6475Z" fill="#6C63FF"/>
<path d="M58.037 24.6475C61.992 24.6475 65.1981 21.5727 65.1981 17.7796C65.1981 13.9866 61.992 10.9117 58.037 10.9117C54.0821 10.9117 50.876 13.9866 50.876 17.7796C50.876 21.5727 54.0821 24.6475 58.037 24.6475Z" fill="#6C63FF"/>
<path d="M378.172 36.0961H58.0479V37.1985H378.172V36.0961Z" fill="#3F3D56"/>
<path d="M187.361 72.4753H23.5635V210.827H187.361V72.4753Z" fill="white"/>
<path d="M400.586 72.4753H236.788V210.827H400.586V72.4753Z" fill="white"/>
<path d="M119.057 102.434C112.805 92.3022 100.435 91.83 100.435 91.83C100.435 91.83 88.3809 90.3517 80.6484 105.783C73.4412 120.166 63.4942 134.054 79.047 137.421L81.8563 129.035L83.5961 138.045C85.8105 138.198 88.032 138.234 90.2506 138.154C106.906 137.639 122.769 138.305 122.258 132.573C121.579 124.953 125.073 112.184 119.057 102.434Z" fill="#2F2E41"/>
<path d="M101.68 131.249C110.596 131.249 117.824 124.317 117.824 115.766C117.824 107.215 110.596 100.283 101.68 100.283C92.7641 100.283 85.5361 107.215 85.5361 115.766C85.5361 124.317 92.7641 131.249 101.68 131.249Z" fill="#A0616A"/>
<path d="M95.0759 125.853C95.0759 125.853 102.414 142.275 92.6299 145.559L102.414 176.525L119.047 175.587L123.45 165.265L122.472 149.782L121.004 139.459C121.004 139.459 110.731 141.805 111.709 124.446L95.0759 125.853Z" fill="#A0616A"/>
<path d="M91.1623 145.09C91.1623 145.09 75.0183 143.682 76.4859 154.943C77.9536 166.203 79.4212 168.549 79.4212 168.549L80.8888 185.44L72.083 190.601H63.7664C63.7664 190.601 38.3273 196.231 51.0468 202.33C63.7664 208.43 68.1693 197.638 68.1693 197.638C68.1693 197.638 91.6515 197.638 93.1192 193.885C94.5868 190.132 91.1623 145.09 91.1623 145.09Z" fill="#A0616A"/>
<path d="M122.472 140.398C122.472 140.398 137.637 135.237 138.616 146.497C139.594 157.758 139.594 158.696 139.594 158.696L142.529 174.648C142.529 174.648 148.4 188.724 148.4 192.946C148.4 197.169 152.803 210.306 152.803 210.306C152.803 210.306 158.673 228.604 152.314 228.135C145.954 227.666 144.975 208.43 144.975 208.43L131.767 183.094L127.853 167.61L122.472 140.398Z" fill="#A0616A"/>
<path d="M93.6077 143.213H89.694L89.2048 162.919C89.2048 162.919 82.845 171.364 90.6724 178.871L92.6293 191.07L128.342 189.662L130.788 176.994C130.788 176.994 135.68 166.672 128.831 157.289L122.471 138.052H119.047C119.047 138.052 126.978 166.099 110.241 166.672C96.543 167.141 93.6077 143.213 93.6077 143.213Z" fill="black"/>
<path d="M138.384 210.827H87.043C89.7499 203.264 91.4799 198.573 91.6408 198.143C91.6435 198.132 91.6474 198.121 91.6523 198.11L92.842 194.307L93.3363 192.731L93.8708 191.022L94.5892 188.723L126.383 187.786L127.274 189.705L130.297 196.231C130.561 196.306 130.811 196.419 131.039 196.567C133.297 197.989 135.792 203.137 138.384 210.827Z" fill="#2F2E41"/>
<path d="M129.81 184.032L91.1619 185.44C91.1619 185.44 89.398 198.108 91.1619 198.108C91.6511 198.108 131.767 201.392 131.277 195.762C130.788 190.132 129.81 184.032 129.81 184.032Z" fill="#706D91"/>
<path d="M101.948 100.459C106.888 100.459 110.892 96.619 110.892 91.8815C110.892 87.144 106.888 83.3035 101.948 83.3035C97.0083 83.3035 93.0039 87.144 93.0039 91.8815C93.0039 96.619 97.0083 100.459 101.948 100.459Z" fill="#2F2E41"/>
<path d="M92.0634 89.6239C92.0637 87.5053 92.8813 85.4618 94.3589 83.8869C95.8364 82.312 97.8693 81.3172 100.066 81.0941C99.7533 81.0623 99.4391 81.0462 99.1246 81.0459C97.9098 81.0452 96.7077 81.2818 95.5914 81.7412C94.4752 82.2007 93.4682 82.8734 92.6319 83.7184C91.7956 84.5634 91.1476 85.5628 90.7273 86.6559C90.307 87.7489 90.1232 88.9126 90.1872 90.076C90.2513 91.2394 90.5617 92.3781 91.0997 93.4226C91.6376 94.4672 92.3917 95.3957 93.3161 96.1515C94.2405 96.9073 95.3157 97.4747 96.4762 97.8189C97.6367 98.1631 98.8582 98.277 100.066 98.1537C97.8693 97.9306 95.8364 96.9358 94.3589 95.3609C92.8813 93.786 92.0637 91.7425 92.0634 89.6239V89.6239Z" fill="#2F2E41"/>
<path d="M116.293 101.458L104.073 95.3186L87.1956 97.8299L83.7041 112.62L92.3957 112.3L94.824 106.866V112.21L98.835 112.062L101.163 103.411L102.617 112.62L116.875 112.341L116.293 101.458Z" fill="#2F2E41"/>
<path d="M310.938 121.911C319.929 121.911 327.217 114.921 327.217 106.299C327.217 97.6766 319.929 90.687 310.938 90.687C301.948 90.687 294.66 97.6766 294.66 106.299C294.66 114.921 301.948 121.911 310.938 121.911Z" fill="#FFB9B9"/>
<path d="M304.579 118.252C304.579 118.252 306.614 127.521 306.614 128.497C306.614 129.473 316.279 133.863 316.279 133.863L324.927 132.4L327.979 123.618C327.979 123.618 322.892 116.3 322.892 113.373L304.579 118.252Z" fill="#FFB9B9"/>
<path d="M348.441 210.826L350.539 207.144L350.872 206.555L346.803 165.088L347.045 163.214L351.378 129.475L326.291 121.014H326.285C326.237 123.14 325.489 125.197 324.15 126.891C322.81 128.586 320.947 129.831 318.825 130.45C311.193 132.887 305.94 124.685 305.94 124.685L284.738 140.207L295.037 168.847L300.003 182.649C300.003 182.649 300.509 198.75 301.02 200.216C301.526 201.677 300.509 202.167 300.003 202.652C299.492 203.143 300.509 204.603 301.02 204.603C301.273 204.603 301.779 206.433 302.227 208.263C302.457 209.2 302.67 210.137 302.819 210.826H348.441Z" fill="#929292"/>
<path d="M388.259 208.263C388.259 208.263 401.993 216.557 400.467 221.923C398.941 227.29 383.172 212.654 383.172 212.166C383.172 211.678 388.259 208.263 388.259 208.263Z" fill="#FFB9B9"/>
<path d="M348.441 210.827H352.269L351.125 206.797C350.936 206.923 350.74 207.039 350.539 207.145C349.039 207.96 344.562 210.005 336.108 210.827C330.831 211.297 325.521 211.297 320.245 210.827C314.378 210.328 308.55 209.472 302.796 208.264H301.779L301.21 210.827H348.441Z" fill="#2F2E41"/>
<path d="M296.822 93.7211C296.822 93.7211 301.99 82.9816 311.896 85.4599C321.801 87.9383 327.4 91.6558 327.831 95.3733C328.262 99.0907 327.616 104.667 327.616 104.667C327.616 104.667 326.539 97.0255 319.648 98.6777C312.757 100.33 301.99 99.0908 301.99 99.0908L300.267 113.961C300.267 113.961 298.329 111.276 296.176 112.928C294.022 114.58 289.931 97.0255 296.822 93.7211Z" fill="#2F2E41"/>
<path d="M296.175 210.827H282.175L281.181 208.997C275.077 198.75 275.077 184.6 275.077 184.6L278.635 155.817C278.129 145.57 284.738 140.207 284.738 140.207H292.371L297.969 158.259L295.038 168.847L291.353 182.164L290.336 183.625C290.336 183.625 291.354 185.091 290.842 185.576C290.336 186.067 289.825 188.018 289.825 188.018C289.825 188.018 291.354 197.774 292.882 198.75C294.405 199.725 292.371 199.725 292.371 200.216C292.371 200.701 293.9 202.652 293.9 202.652V205.094L296.175 210.827Z" fill="#929292"/>
<path d="M342.731 128.009L351.379 129.473C351.379 129.473 356.466 134.351 358.501 140.206L362.57 157.769L369.183 170.453C369.183 170.453 376.814 177.772 382.409 194.359L390.548 208.995L381.901 213.874C381.901 213.874 357.992 187.041 354.94 177.771L341.714 153.378L342.731 128.009Z" fill="#929292"/>
</g>
<defs>
<clipPath id="clip0">
<rect width="593" height="391" fill="white"/>
</clipPath>
</defs>
</svg>
