<svg width="549" height="457" viewBox="0 0 549 457" fill="none" xmlns="http://www.w3.org/2000/svg">
<g clip-path="url(#clip0)">
<path d="M549 355.304C548.885 358.11 546.01 416.04 506.575 447.693C504.926 449.016 503.212 450.292 501.435 451.518L500.094 450.226H500.872C501.792 450.226 502.674 449.865 503.324 449.223C503.975 448.581 504.34 447.711 504.34 446.803V332.617C505.165 328.236 505.943 323.932 506.652 319.741C510.498 296.963 512.278 277.722 509.396 269.729C510.644 272.816 535.706 335.971 522.096 400.32C535.575 382.105 548.368 362.985 549 355.304Z" fill="#EFCF5F"/>
<path d="M499.94 7.01953H25.1062C23.5738 7.02137 22.1047 7.62292 21.0212 8.69223C19.9376 9.76153 19.328 11.2113 19.3262 12.7235V446.987C19.3267 448.5 19.9359 449.95 21.0197 451.02C22.1035 452.089 23.5734 452.691 25.1062 452.691H499.94C501.316 452.692 502.648 452.208 503.693 451.325C504.739 450.442 505.431 449.219 505.643 447.877C505.696 447.583 505.722 447.285 505.72 446.987V12.7235C505.718 11.2113 505.109 9.76153 504.025 8.69223C502.941 7.62292 501.472 7.02137 499.94 7.01953ZM503.408 446.987C503.408 447.895 503.042 448.765 502.392 449.407C501.742 450.049 500.86 450.409 499.94 450.41H25.1062C24.1864 450.409 23.3043 450.049 22.654 449.407C22.0036 448.765 21.6382 447.895 21.6382 446.987V12.7235C21.6395 11.8163 22.0054 10.9466 22.6554 10.305C23.3055 9.6635 24.1868 9.30249 25.1062 9.30113H499.94C500.859 9.30249 501.741 9.6635 502.391 10.305C503.041 10.9466 503.407 11.8163 503.408 12.7235V446.987Z" fill="#E6E6E6"/>
<path d="M278.311 49.9403C277.343 49.9403 276.557 51.5973 276.557 53.6343V206.32C276.557 208.357 277.343 210.014 278.311 210.014H446.128C447.095 210.014 447.882 208.357 447.882 206.32V53.6343C447.882 51.5973 447.095 49.9403 446.128 49.9403H278.311Z" fill="#E6E6E6"/>
<path d="M80.0754 49.6462C79.3428 49.6585 78.6444 49.9543 78.1307 50.4699C77.617 50.9856 77.3291 51.6797 77.3291 52.4028C77.3291 53.1259 77.617 53.82 78.1307 54.3357C78.6444 54.8513 79.3428 55.1471 80.0754 55.1594H211.765C212.133 55.1669 212.499 55.1026 212.841 54.9703C213.184 54.838 213.496 54.6402 213.761 54.3883C214.026 54.1364 214.238 53.8353 214.385 53.5024C214.531 53.1695 214.61 52.8112 214.616 52.4483C214.622 52.0853 214.555 51.7247 214.42 51.3872C214.284 51.0497 214.083 50.7419 213.826 50.4816C213.57 50.2212 213.264 50.0134 212.926 49.8701C212.588 49.7267 212.225 49.6507 211.857 49.6462C211.826 49.6458 211.796 49.6458 211.765 49.6462H80.0754Z" fill="#E6E6E6"/>
<path d="M80.0754 75.5043C79.3428 75.5165 78.6444 75.8124 78.1307 76.328C77.617 76.8436 77.3291 77.5377 77.3291 78.2608C77.3291 78.9839 77.617 79.6781 78.1307 80.1937C78.6444 80.7093 79.3428 81.0051 80.0754 81.0174H211.765C212.133 81.0249 212.499 80.9606 212.841 80.8283C213.184 80.696 213.496 80.4982 213.761 80.2463C214.026 79.9944 214.238 79.6933 214.385 79.3604C214.531 79.0275 214.61 78.6693 214.616 78.3063C214.622 77.9433 214.555 77.5827 214.42 77.2452C214.284 76.9077 214.083 76.6 213.826 76.3396C213.57 76.0793 213.264 75.8715 212.926 75.7281C212.588 75.5848 212.225 75.5087 211.857 75.5043C211.826 75.5038 211.796 75.5038 211.765 75.5043H80.0754Z" fill="#E6E6E6"/>
<path d="M80.0754 101.362C79.3428 101.375 78.6444 101.671 78.1307 102.186C77.617 102.702 77.3291 103.396 77.3291 104.119C77.3291 104.842 77.617 105.536 78.1307 106.052C78.6444 106.567 79.3428 106.863 80.0754 106.876H211.765C212.133 106.883 212.499 106.819 212.841 106.686C213.184 106.554 213.496 106.356 213.761 106.104C214.026 105.853 214.238 105.552 214.385 105.219C214.531 104.886 214.61 104.527 214.616 104.164C214.622 103.801 214.555 103.441 214.42 103.103C214.284 102.766 214.083 102.458 213.826 102.198C213.57 101.937 213.264 101.73 212.926 101.586C212.588 101.443 212.225 101.367 211.857 101.362C211.826 101.362 211.796 101.362 211.765 101.362H80.0754Z" fill="#E6E6E6"/>
<path d="M80.0756 127.22C79.3429 127.233 78.6445 127.528 78.1307 128.044C77.617 128.56 77.3291 129.254 77.3291 129.977C77.3291 130.7 77.617 131.394 78.1307 131.91C78.6445 132.426 79.3429 132.721 80.0756 132.734H211.765C212.504 132.743 213.217 132.462 213.747 131.954C214.277 131.446 214.581 130.751 214.593 130.022C214.606 129.293 214.324 128.589 213.812 128.064C213.299 127.538 212.596 127.235 211.857 127.22C211.826 127.22 211.796 127.22 211.765 127.22H80.0756Z" fill="#E6E6E6"/>
<path d="M80.0756 153.079C79.3429 153.091 78.6445 153.387 78.1307 153.902C77.617 154.418 77.3291 155.112 77.3291 155.835C77.3291 156.558 77.617 157.252 78.1307 157.768C78.6445 158.284 79.3429 158.579 80.0756 158.592H211.765C212.504 158.601 213.217 158.321 213.747 157.812C214.277 157.304 214.581 156.609 214.593 155.88C214.606 155.151 214.324 154.447 213.812 153.922C213.299 153.397 212.596 153.093 211.857 153.079C211.826 153.078 211.796 153.078 211.765 153.079H80.0756Z" fill="#E6E6E6"/>
<path d="M80.0754 178.937C79.3428 178.949 78.6444 179.245 78.1307 179.76C77.617 180.276 77.3291 180.97 77.3291 181.693C77.3291 182.416 77.617 183.11 78.1307 183.626C78.6444 184.142 79.3428 184.438 80.0754 184.45H211.765C212.133 184.457 212.499 184.393 212.841 184.261C213.184 184.128 213.496 183.931 213.761 183.679C214.026 183.427 214.238 183.126 214.385 182.793C214.531 182.46 214.61 182.102 214.616 181.739C214.622 181.376 214.555 181.015 214.42 180.678C214.284 180.34 214.083 180.032 213.826 179.772C213.57 179.512 213.264 179.304 212.926 179.16C212.588 179.017 212.225 178.941 211.857 178.937C211.826 178.936 211.796 178.936 211.765 178.937H80.0754Z" fill="#E6E6E6"/>
<path d="M80.0754 204.795C79.3428 204.807 78.6444 205.103 78.1307 205.619C77.617 206.134 77.3291 206.828 77.3291 207.551C77.3291 208.274 77.617 208.969 78.1307 209.484C78.6444 210 79.3428 210.296 80.0754 210.308H211.765C212.133 210.315 212.499 210.251 212.841 210.119C213.184 209.987 213.496 209.789 213.761 209.537C214.026 209.285 214.238 208.984 214.385 208.651C214.531 208.318 214.61 207.96 214.616 207.597C214.622 207.234 214.555 206.873 214.42 206.536C214.284 206.198 214.083 205.89 213.826 205.63C213.57 205.37 213.264 205.162 212.926 205.019C212.588 204.875 212.225 204.799 211.857 204.795C211.826 204.794 211.796 204.794 211.765 204.795H80.0754Z" fill="#E6E6E6"/>
<path d="M80.5488 259.178C78.6485 259.203 77.1333 260.458 77.1645 261.98C77.195 263.467 78.6925 264.667 80.5488 264.691H444.385C446.285 264.716 447.851 263.502 447.882 261.98C447.913 260.458 446.398 259.203 444.498 259.178C444.46 259.178 444.422 259.178 444.385 259.178H80.5488Z" fill="#E6E6E6"/>
<path d="M80.5488 283.407C78.6485 283.432 77.1333 284.686 77.1645 286.209C77.195 287.696 78.6925 288.896 80.5488 288.92H444.385C446.285 288.945 447.851 287.731 447.882 286.209C447.913 284.686 446.398 283.432 444.498 283.407C444.46 283.406 444.422 283.406 444.385 283.407H80.5488Z" fill="#E6E6E6"/>
<path d="M80.5488 307.636C78.6485 307.661 77.1333 308.915 77.1645 310.438C77.195 311.925 78.6925 313.124 80.5488 313.149H444.385C446.285 313.174 447.851 311.96 447.882 310.438C447.913 308.915 446.398 307.661 444.498 307.636C444.46 307.635 444.422 307.635 444.385 307.636H80.5488Z" fill="#E6E6E6"/>
<path d="M80.5488 331.865C78.6485 331.89 77.1333 333.144 77.1645 334.667C77.195 336.154 78.6925 337.353 80.5488 337.378H444.385C446.285 337.403 447.851 336.189 447.882 334.667C447.913 333.144 446.398 331.89 444.498 331.865C444.46 331.864 444.422 331.864 444.385 331.865H80.5488Z" fill="#E6E6E6"/>
<path d="M80.5488 356.094C78.6485 356.119 77.1333 357.373 77.1645 358.895C77.195 360.383 78.6925 361.582 80.5488 361.607H444.385C446.285 361.632 447.851 360.418 447.882 358.895C447.913 357.373 446.398 356.119 444.498 356.094C444.46 356.093 444.422 356.093 444.385 356.094H80.5488Z" fill="#E6E6E6"/>
<path d="M80.5488 380.323C78.6485 380.347 77.1333 381.602 77.1645 383.124C77.195 384.611 78.6925 385.811 80.5488 385.836H444.385C446.285 385.86 447.851 384.647 447.882 383.124C447.913 381.602 446.398 380.347 444.498 380.323C444.46 380.322 444.422 380.322 444.385 380.323H80.5488Z" fill="#E6E6E6"/>
<path d="M80.5488 404.551C78.6485 404.576 77.1333 405.831 77.1645 407.353C77.195 408.84 78.6925 410.04 80.5488 410.064H444.385C446.285 410.089 447.851 408.876 447.882 407.353C447.913 405.831 446.398 404.576 444.498 404.551C444.46 404.551 444.422 404.551 444.385 404.551H80.5488Z" fill="#E6E6E6"/>
<path d="M52.0852 456.999C80.8477 456.953 104.162 455.162 104.158 452.997C104.155 450.832 80.835 449.114 52.0724 449.159C23.3098 449.205 -0.00398167 450.997 -0.000460684 453.162C0.00306031 455.327 23.3226 457.045 52.0852 456.999Z" fill="#E6E6E6"/>
<path d="M55.488 256.692L52.3369 275.185C52.0686 276.759 51.4406 278.253 50.5002 279.555C49.5598 280.856 48.3315 281.931 46.9076 282.699C45.4837 283.467 43.9012 283.907 42.2792 283.987C40.6573 284.067 39.038 283.784 37.5432 283.16C36.2056 282.601 34.9971 281.782 33.991 280.751C32.9848 279.72 32.2019 278.5 31.6896 277.163C31.1773 275.826 30.9463 274.401 31.0105 272.974C31.0747 271.546 31.4328 270.147 32.0632 268.86L39.4458 253.785L50.1917 182L70 187.227L55.488 256.692Z" fill="#FFB8B8"/>
<path d="M40.3672 416.338L25 419L38.0011 315L63 317.119L40.3672 416.338Z" fill="#FFB8B8"/>
<path d="M104.367 416.338L89 419L102.001 315L127 317.118L104.367 416.338Z" fill="#FFB8B8"/>
<path d="M92.5 127C103.27 127 112 118.493 112 108C112 97.5066 103.27 89 92.5 89C81.7304 89 73 97.5066 73 108C73 118.493 81.7304 127 92.5 127Z" fill="#FFB8B8"/>
<path d="M94.956 146L72 143.949L75.2221 110.041L102 110L94.956 146Z" fill="#FFB8B8"/>
<path d="M132 330L31 318.03C33.1939 299.096 36.4799 281.972 41.2983 267.388C48.5017 245.586 59.13 229.459 74.6546 221.446L74.6263 204.042L66.1949 150.924C65.9025 149.082 66.0174 147.199 66.5317 145.405C67.0459 143.611 67.9474 141.948 69.1741 140.53C70.4009 139.112 71.9239 137.973 73.6387 137.191C75.3534 136.409 77.2192 136.003 79.1081 136L96.424 137.555L118.247 163.393C121.327 167.04 123.615 171.273 124.969 175.83C126.322 180.387 126.712 185.169 126.115 189.881L118.512 249.856L132 330Z" fill="#EFCF5F"/>
<path d="M74.4878 196L43 185.398L55.6537 149.586C56.5361 147.089 58.1133 144.881 60.2088 143.209C62.3043 141.538 64.8352 140.469 67.5179 140.123V140.123C69.852 139.821 72.2262 140.077 74.4372 140.867C76.6482 141.657 78.6301 142.958 80.2134 144.659C81.7967 146.36 82.9341 148.41 83.5283 150.634C84.1225 152.858 84.1558 155.189 83.6253 157.429L74.4878 196Z" fill="#EFCF5F"/>
<path d="M52.207 452.172C39.6898 451.845 42.6557 453.624 39.6897 451.845C30.9157 446.583 27.3114 440.098 26.1617 453.461L21.4789 454C17.3439 439.669 18.5087 428.711 24.0283 420.527L25.5778 413.087L40.6679 412C42.0045 426.377 48.135 437.831 54.8463 442.822C55.6079 443.376 56.2097 444.128 56.5885 445.001V445.001C56.9107 445.764 57.047 446.595 56.9857 447.423C56.9245 448.252 56.6675 449.052 56.2369 449.757C55.8062 450.462 55.2146 451.05 54.5128 451.471C53.811 451.891 53.0198 452.132 52.207 452.172V452.172Z" fill="#EFCF5F"/>
<path d="M117.081 452.172C104.234 451.845 107.278 453.624 104.234 451.845C95.2293 446.583 91.5302 440.098 90.3501 453.461L85.5441 454C81.3004 439.669 82.4957 428.712 88.1606 420.527L89.7509 413.087L105.238 412C106.61 426.377 112.902 437.831 119.79 442.822C120.571 443.376 121.189 444.128 121.578 445.001V445.001C121.908 445.764 122.048 446.595 121.985 447.423C121.922 448.252 121.659 449.052 121.217 449.757C120.775 450.462 120.168 451.05 119.447 451.471C118.727 451.891 117.915 452.132 117.081 452.172V452.172Z" fill="#EFCF5F"/>
<path d="M106.071 104.239L116 99.4697L115.998 98.2908C115.981 88.0168 107.948 79.6092 97.8475 79.2938C97.8475 79.2938 77.4837 68.2252 63.486 86.6689C49.4884 105.113 57.0275 137 57.0275 137L78.0257 133.822L79.2217 126.863L82.7394 133.394L95.0128 132.781C95.0128 132.781 97.2164 118.703 96.7322 111.979C96.015 102.02 103.972 102.195 106.071 104.239Z" fill="white"/>
<path d="M122.081 270.663L124.881 288.993C125.12 290.554 124.998 292.148 124.527 293.655C124.055 295.163 123.245 296.545 122.158 297.697C121.071 298.849 119.735 299.741 118.251 300.307C116.766 300.872 115.172 301.096 113.588 300.962C112.17 300.842 110.791 300.438 109.536 299.773C108.28 299.109 107.173 298.199 106.282 297.098C105.391 295.996 104.734 294.727 104.351 293.367C103.969 292.006 103.868 290.583 104.056 289.182L106.252 272.784L94 202.08L114.052 201L122.081 270.663Z" fill="#FFB8B8"/>
<path d="M92.2182 268.391L67.6758 268.43L67.6299 240.211C67.6267 238.244 68.1788 236.314 69.2243 234.638C70.2699 232.963 71.7675 231.608 73.5495 230.725V230.725C75.0999 229.957 76.8159 229.571 78.5505 229.6C80.285 229.63 81.9866 230.073 83.5095 230.893C85.0323 231.714 86.3311 232.886 87.2947 234.309C88.2582 235.733 88.8579 237.366 89.0422 239.068L92.2182 268.391Z" fill="#EFCF5F"/>
<path d="M177.883 111.009C177.656 111.011 177.43 110.965 177.221 110.875C176.932 110.755 176.686 110.554 176.513 110.296C176.34 110.039 176.247 109.737 176.246 109.428L175.444 2.2468C175.441 1.82444 175.607 1.41785 175.907 1.11626C176.206 0.81467 176.615 0.642695 177.043 0.638079L242.762 6.10281e-05C243.19 -0.00363145 243.602 0.160367 243.908 0.456084C244.214 0.751801 244.388 1.15508 244.393 1.57744L245.194 108.759C245.198 109.067 245.11 109.37 244.942 109.63C244.774 109.89 244.534 110.096 244.249 110.224C243.965 110.352 243.649 110.396 243.34 110.35C243.031 110.304 242.742 110.171 242.508 109.966H242.509L210.814 82.206C210.714 82.1179 210.585 82.0698 210.451 82.0711C210.317 82.0724 210.189 82.123 210.091 82.213L178.956 110.583C178.665 110.852 178.282 111.004 177.883 111.009Z" fill="#EFCF5F"/>
</g>
<defs>
<clipPath id="clip0">
<rect width="549" height="457" fill="white"/>
</clipPath>
</defs>
</svg>
