<svg viewBox="0 0 32 32" fill="none" xmlns="http://www.w3.org/2000/svg">
<path d="M2 5.5C2 4.57174 2.36875 3.6815 3.02513 3.02513C3.6815 2.36875 4.57174 2 5.5 2H9C9.92826 2 10.8185 2.36875 11.4749 3.02513C12.1313 3.6815 12.5 4.57174 12.5 5.5V9C12.5 9.92826 12.1313 10.8185 11.4749 11.4749C10.8185 12.1313 9.92826 12.5 9 12.5H5.5C4.57174 12.5 3.6815 12.1313 3.02513 11.4749C2.36875 10.8185 2 9.92826 2 9V5.5Z" stroke="black" stroke-width="3" stroke-linecap="round" stroke-linejoin="round"/>
<path d="M19.5 5.5C19.5 4.57174 19.8687 3.6815 20.5251 3.02513C21.1815 2.36875 22.0717 2 23 2H26.5C27.4283 2 28.3185 2.36875 28.9749 3.02513C29.6313 3.6815 30 4.57174 30 5.5V9C30 9.92826 29.6313 10.8185 28.9749 11.4749C28.3185 12.1313 27.4283 12.5 26.5 12.5H23C22.0717 12.5 21.1815 12.1313 20.5251 11.4749C19.8687 10.8185 19.5 9.92826 19.5 9V5.5Z" stroke="black" stroke-width="3" stroke-linecap="round" stroke-linejoin="round"/>
<path d="M2 23C2 22.0717 2.36875 21.1815 3.02513 20.5251C3.6815 19.8687 4.57174 19.5 5.5 19.5H9C9.92826 19.5 10.8185 19.8687 11.4749 20.5251C12.1313 21.1815 12.5 22.0717 12.5 23V26.5C12.5 27.4283 12.1313 28.3185 11.4749 28.9749C10.8185 29.6313 9.92826 30 9 30H5.5C4.57174 30 3.6815 29.6313 3.02513 28.9749C2.36875 28.3185 2 27.4283 2 26.5V23Z" stroke="black" stroke-width="3" stroke-linecap="round" stroke-linejoin="round"/>
<path d="M19.5 23C19.5 22.0717 19.8687 21.1815 20.5251 20.5251C21.1815 19.8687 22.0717 19.5 23 19.5H26.5C27.4283 19.5 28.3185 19.8687 28.9749 20.5251C29.6313 21.1815 30 22.0717 30 23V26.5C30 27.4283 29.6313 28.3185 28.9749 28.9749C28.3185 29.6313 27.4283 30 26.5 30H23C22.0717 30 21.1815 29.6313 20.5251 28.9749C19.8687 28.3185 19.5 27.4283 19.5 26.5V23Z" stroke="black" stroke-width="3" stroke-linecap="round" stroke-linejoin="round"/>
</svg>
